<svg xmlns="http://www.w3.org/2000/svg" width="1000" height="380" viewBox="0 0 1000 380">
  <defs>
    <linearGradient id="bg" x1="0" y1="0" x2="1" y2="1">
      <stop offset="0%" stop-color="#001B44"/>
      <stop offset="48%" stop-color="#002756"/>
      <stop offset="100%" stop-color="#020617"/>
    </linearGradient>

    <linearGradient id="glass" x1="0" y1="0" x2="1" y2="1">
      <stop offset="0%" stop-color="#0F2038" stop-opacity="0.92"/>
      <stop offset="100%" stop-color="#0A1527" stop-opacity="0.82"/>
    </linearGradient>

    <linearGradient id="ocean1" x1="0" y1="0" x2="1" y2="0">
      <stop offset="0%" stop-color="#00AEEF" stop-opacity="0.30"/>
      <stop offset="100%" stop-color="#003893" stop-opacity="0.12"/>
    </linearGradient>

    <linearGradient id="ocean2" x1="0" y1="0" x2="1" y2="0">
      <stop offset="0%" stop-color="#F7D116" stop-opacity="0.12"/>
      <stop offset="100%" stop-color="#FFFFFF" stop-opacity="0.05"/>
    </linearGradient>

    <radialGradient id="softGlow" cx="0.5" cy="0.5" r="0.5">
      <stop offset="0%" stop-color="#00AEEF" stop-opacity="0.22"/>
      <stop offset="100%" stop-color="#00AEEF" stop-opacity="0"/>
    </radialGradient>

    <filter id="glow">
      <feGaussianBlur stdDeviation="4" result="blur"/>
      <feMerge>
        <feMergeNode in="blur"/>
        <feMergeNode in="SourceGraphic"/>
      </feMerge>
    </filter>

    <filter id="shadow">
      <feDropShadow dx="0" dy="4" stdDeviation="6" flood-color="#000000" flood-opacity="0.35"/>
    </filter>
  </defs>

  <rect width="1000" height="380" rx="28" fill="url(#bg)"/>

  <!-- brilhos suaves -->
  <circle cx="920" cy="70" r="54" fill="url(#softGlow)">
    <animate attributeName="r" values="46;60;46" dur="5s" repeatCount="indefinite"/>
    <animate attributeName="opacity" values="0.6;1;0.6" dur="5s" repeatCount="indefinite"/>
  </circle>

  <circle cx="150" cy="270" r="95" fill="url(#softGlow)" opacity="0.55">
    <animate attributeName="r" values="86;102;86" dur="6s" repeatCount="indefinite"/>
  </circle>

  <!-- emblema superior esquerdo -->
  <g filter="url(#glow)">
    <circle cx="78" cy="72" r="28" fill="#003893" opacity="0.95"/>
    
                <polygon points="78.00,50.80 78.82,52.87 81.04,53.01 79.33,54.43 79.88,56.59 78.00,55.40 76.12,56.59 76.67,54.43 74.96,53.01 77.18,52.87" fill="#F7D116" opacity="0.92">
                  <animate attributeName="opacity" values="0.55;1;0.55" dur="2.0s" begin="-0.0s" repeatCount="indefinite"/>
                </polygon>
                

                <polygon points="88.58,54.24 89.40,56.31 91.62,56.45 89.91,57.87 90.46,60.03 88.58,58.84 86.70,60.03 87.25,57.87 85.54,56.45 87.76,56.31" fill="#F7D116" opacity="0.92">
                  <animate attributeName="opacity" values="0.55;1;0.55" dur="2.25s" begin="-0.18s" repeatCount="indefinite"/>
                </polygon>
                

                <polygon points="95.12,63.24 95.94,65.31 98.16,65.45 96.45,66.87 97.00,69.03 95.12,67.84 93.24,69.03 93.79,66.87 92.08,65.45 94.30,65.31" fill="#F7D116" opacity="0.92">
                  <animate attributeName="opacity" values="0.55;1;0.55" dur="2.5s" begin="-0.36s" repeatCount="indefinite"/>
                </polygon>
                

                <polygon points="95.12,74.36 95.94,76.43 98.16,76.57 96.45,77.99 97.00,80.15 95.12,78.96 93.24,80.15 93.79,77.99 92.08,76.57 94.30,76.43" fill="#F7D116" opacity="0.92">
                  <animate attributeName="opacity" values="0.55;1;0.55" dur="2.75s" begin="-0.54s" repeatCount="indefinite"/>
                </polygon>
                

                <polygon points="88.58,83.36 89.40,85.43 91.62,85.57 89.91,86.99 90.46,89.15 88.58,87.96 86.70,89.15 87.25,86.99 85.54,85.57 87.76,85.43" fill="#F7D116" opacity="0.92">
                  <animate attributeName="opacity" values="0.55;1;0.55" dur="3.0s" begin="-0.72s" repeatCount="indefinite"/>
                </polygon>
                

                <polygon points="78.00,86.80 78.82,88.87 81.04,89.01 79.33,90.43 79.88,92.59 78.00,91.40 76.12,92.59 76.67,90.43 74.96,89.01 77.18,88.87" fill="#F7D116" opacity="0.92">
                  <animate attributeName="opacity" values="0.55;1;0.55" dur="2.0s" begin="-0.8999999999999999s" repeatCount="indefinite"/>
                </polygon>
                

                <polygon points="67.42,83.36 68.24,85.43 70.46,85.57 68.75,86.99 69.30,89.15 67.42,87.96 65.54,89.15 66.09,86.99 64.38,85.57 66.60,85.43" fill="#F7D116" opacity="0.92">
                  <animate attributeName="opacity" values="0.55;1;0.55" dur="2.25s" begin="-1.08s" repeatCount="indefinite"/>
                </polygon>
                

                <polygon points="60.88,74.36 61.70,76.43 63.92,76.57 62.21,77.99 62.76,80.15 60.88,78.96 59.00,80.15 59.55,77.99 57.84,76.57 60.06,76.43" fill="#F7D116" opacity="0.92">
                  <animate attributeName="opacity" values="0.55;1;0.55" dur="2.5s" begin="-1.26s" repeatCount="indefinite"/>
                </polygon>
                

                <polygon points="60.88,63.24 61.70,65.31 63.92,65.45 62.21,66.87 62.76,69.03 60.88,67.84 59.00,69.03 59.55,66.87 57.84,65.45 60.06,65.31" fill="#F7D116" opacity="0.92">
                  <animate attributeName="opacity" values="0.55;1;0.55" dur="2.75s" begin="-1.44s" repeatCount="indefinite"/>
                </polygon>
                

                <polygon points="67.42,54.24 68.24,56.31 70.46,56.45 68.75,57.87 69.30,60.03 67.42,58.84 65.54,60.03 66.09,57.87 64.38,56.45 66.60,56.31" fill="#F7D116" opacity="0.92">
                  <animate attributeName="opacity" values="0.55;1;0.55" dur="3.0s" begin="-1.6199999999999999s" repeatCount="indefinite"/>
                </polygon>
                
  </g>

  <!-- faixas inspiradas na bandeira -->
  <rect x="122" y="47" width="150" height="7" rx="3" fill="#FFFFFF"/>
  <rect x="122" y="60" width="150" height="7" rx="3" fill="#CF2027"/>
  <rect x="122" y="73" width="150" height="7" rx="3" fill="#FFFFFF"/>

  <!-- título -->
  <text x="42" y="140" fill="#FFFFFF" font-size="34" font-family="Segoe UI, Arial, sans-serif" font-weight="800">
    Cabo Verde Dev Pulse
  </text>

  <text x="42" y="170" fill="#D5E9FF" font-size="17" font-family="Segoe UI, Arial, sans-serif" font-weight="600">
    Morabeza • Código • Segurança • Java Full Stack
  </text>

  <text x="42" y="200" fill="#E3F0FF" font-size="13" font-family="Segoe UI, Arial, sans-serif">
    Perfil: claudiogt1992-netizen • Praia, Santiago, Cabo Verde • Atualizado: 01/06/2026 11:40
  </text>

  <!-- card stack -->
  <g filter="url(#shadow)">
    <rect x="590" y="42" width="235" height="138" rx="22" fill="url(#glass)" stroke="#2B4F7C"/>
    <text x="615" y="77" fill="#6FC2FF" font-size="13" font-family="Segoe UI, Arial, sans-serif" font-weight="700">
      STACK EM EVOLUÇÃO
    </text>

    <text x="615" y="112" fill="#FFFFFF" font-size="18" font-family="Segoe UI, Arial, sans-serif" font-weight="700">
      <tspan x="615" dy="0">Java • Spring Boot • React</tspan>
      <tspan x="615" dy="22">Angular • Python</tspan>
    </text>

    <text x="615" y="148" fill="#D2E8FF" font-size="12" font-family="Segoe UI, Arial, sans-serif">
      Linguagens no GitHub: Python
    </text>
    <text x="615" y="166" fill="#93C5FD" font-size="12" font-family="Segoe UI, Arial, sans-serif">
      Construindo soluções modernas e escaláveis.
    </text>
  </g>

  <!-- bandeira oficial sem mastro -->
  <g transform="translate(852 36)" filter="url(#shadow)">
    <rect x="-10" y="-8" width="120" height="96" rx="20" fill="#08131f" fill-opacity="0.28" stroke="#24466C"/>

    <g>
      <animateTransform attributeName="transform" type="translate" values="0 0;0 -1.5;0 0" dur="4.6s" repeatCount="indefinite"/>

      <!-- campo azul -->
      <path fill="#003893">
        <animate attributeName="d" dur="5s" repeatCount="indefinite"
          values="
            M6 14 C26 8, 48 20, 84 14 L84 66 C48 72, 26 60, 6 66 Z;
            M6 14 C26 11, 48 17, 84 14 L84 66 C48 69, 26 63, 6 66 Z;
            M6 14 C26 8, 48 20, 84 14 L84 66 C48 72, 26 60, 6 66 Z"/>
      </path>

      <!-- faixas -->
      <path fill="#FFFFFF">
        <animate attributeName="d" dur="5s" repeatCount="indefinite"
          values="
            M6 33 C26 30, 48 36, 84 33 L84 38 C48 41, 26 35, 6 38 Z;
            M6 33 C26 31, 48 35, 84 33 L84 38 C48 40, 26 36, 6 38 Z;
            M6 33 C26 30, 48 36, 84 33 L84 38 C48 41, 26 35, 6 38 Z"/>
      </path>

      <path fill="#CF2027">
        <animate attributeName="d" dur="5s" repeatCount="indefinite"
          values="
            M6 38 C26 35, 48 41, 84 38 L84 46 C48 49, 26 43, 6 46 Z;
            M6 38 C26 36, 48 40, 84 38 L84 46 C48 48, 26 44, 6 46 Z;
            M6 38 C26 35, 48 41, 84 38 L84 46 C48 49, 26 43, 6 46 Z"/>
      </path>

      <path fill="#FFFFFF">
        <animate attributeName="d" dur="5s" repeatCount="indefinite"
          values="
            M6 46 C26 43, 48 49, 84 46 L84 51 C48 54, 26 48, 6 51 Z;
            M6 46 C26 44, 48 48, 84 46 L84 51 C48 53, 26 49, 6 51 Z;
            M6 46 C26 43, 48 49, 84 46 L84 51 C48 54, 26 48, 6 51 Z"/>
      </path>

      <!-- 10 estrelas -->
      <g>
        <polygon points="44.00,15.40 44.65,17.11 46.47,17.20 45.05,18.34 45.53,20.10 44.00,19.10 42.47,20.10 42.95,18.34 41.53,17.20 43.35,17.11" fill="#F7D116" opacity="0.95"/>
<polygon points="54.58,18.84 55.23,20.55 57.05,20.63 55.63,21.78 56.11,23.54 54.58,22.54 53.05,23.54 53.53,21.78 52.11,20.63 53.93,20.55" fill="#F7D116" opacity="0.95"/>
<polygon points="61.12,27.84 61.77,29.55 63.59,29.63 62.17,30.78 62.65,32.54 61.12,31.54 59.59,32.54 60.07,30.78 58.65,29.63 60.47,29.55" fill="#F7D116" opacity="0.95"/>
<polygon points="61.12,38.96 61.77,40.67 63.59,40.76 62.17,41.90 62.65,43.67 61.12,42.66 59.59,43.67 60.07,41.90 58.65,40.76 60.47,40.67" fill="#F7D116" opacity="0.95"/>
<polygon points="54.58,47.96 55.23,49.67 57.05,49.76 55.63,50.90 56.11,52.67 54.58,51.66 53.05,52.67 53.53,50.90 52.11,49.76 53.93,49.67" fill="#F7D116" opacity="0.95"/>
<polygon points="44.00,51.40 44.65,53.11 46.47,53.20 45.05,54.34 45.53,56.10 44.00,55.10 42.47,56.10 42.95,54.34 41.53,53.20 43.35,53.11" fill="#F7D116" opacity="0.95"/>
<polygon points="33.42,47.96 34.07,49.67 35.89,49.76 34.47,50.90 34.95,52.67 33.42,51.66 31.89,52.67 32.37,50.90 30.95,49.76 32.77,49.67" fill="#F7D116" opacity="0.95"/>
<polygon points="26.88,38.96 27.53,40.67 29.35,40.76 27.93,41.90 28.41,43.67 26.88,42.66 25.35,43.67 25.83,41.90 24.41,40.76 26.23,40.67" fill="#F7D116" opacity="0.95"/>
<polygon points="26.88,27.84 27.53,29.55 29.35,29.63 27.93,30.78 28.41,32.54 26.88,31.54 25.35,32.54 25.83,30.78 24.41,29.63 26.23,29.55" fill="#F7D116" opacity="0.95"/>
<polygon points="33.42,18.84 34.07,20.55 35.89,20.63 34.47,21.78 34.95,23.54 33.42,22.54 31.89,23.54 32.37,21.78 30.95,20.63 32.77,20.55" fill="#F7D116" opacity="0.95"/>
      </g>
    </g>
  </g>

  <!-- anel decorativo com 10 estrelas -->
  <g filter="url(#glow)">
    <circle cx="130" cy="242" r="58" fill="none" stroke="#2A5F8F" stroke-opacity="0.35" stroke-width="1.5"/>
    
                <polygon points="130.00,187.40 131.65,191.73 136.28,191.96 132.66,194.87 133.88,199.34 130.00,196.80 126.12,199.34 127.34,194.87 123.72,191.96 128.35,191.73" fill="#F7D116" opacity="0.92">
                  <animate attributeName="opacity" values="0.55;1;0.55" dur="2.0s" begin="-0.0s" repeatCount="indefinite"/>
                </polygon>
                

                <polygon points="158.21,196.57 159.86,200.90 164.49,201.13 160.88,204.03 162.09,208.51 158.21,205.97 154.33,208.51 155.55,204.03 151.94,201.13 156.57,200.90" fill="#F7D116" opacity="0.92">
                  <animate attributeName="opacity" values="0.55;1;0.55" dur="2.25s" begin="-0.18s" repeatCount="indefinite"/>
                </polygon>
                

                <polygon points="175.65,220.57 177.30,224.90 181.93,225.13 178.31,228.03 179.53,232.51 175.65,229.97 171.77,232.51 172.99,228.03 169.37,225.13 174.00,224.90" fill="#F7D116" opacity="0.92">
                  <animate attributeName="opacity" values="0.55;1;0.55" dur="2.5s" begin="-0.36s" repeatCount="indefinite"/>
                </polygon>
                

                <polygon points="175.65,250.23 177.30,254.57 181.93,254.79 178.31,257.70 179.53,262.17 175.65,259.63 171.77,262.17 172.99,257.70 169.37,254.79 174.00,254.57" fill="#F7D116" opacity="0.92">
                  <animate attributeName="opacity" values="0.55;1;0.55" dur="2.75s" begin="-0.54s" repeatCount="indefinite"/>
                </polygon>
                

                <polygon points="158.21,274.23 159.86,278.57 164.49,278.79 160.88,281.70 162.09,286.17 158.21,283.63 154.33,286.17 155.55,281.70 151.94,278.79 156.57,278.57" fill="#F7D116" opacity="0.92">
                  <animate attributeName="opacity" values="0.55;1;0.55" dur="3.0s" begin="-0.72s" repeatCount="indefinite"/>
                </polygon>
                

                <polygon points="130.00,283.40 131.65,287.73 136.28,287.96 132.66,290.87 133.88,295.34 130.00,292.80 126.12,295.34 127.34,290.87 123.72,287.96 128.35,287.73" fill="#F7D116" opacity="0.92">
                  <animate attributeName="opacity" values="0.55;1;0.55" dur="2.0s" begin="-0.8999999999999999s" repeatCount="indefinite"/>
                </polygon>
                

                <polygon points="101.79,274.23 103.43,278.57 108.06,278.79 104.45,281.70 105.67,286.17 101.79,283.63 97.91,286.17 99.12,281.70 95.51,278.79 100.14,278.57" fill="#F7D116" opacity="0.92">
                  <animate attributeName="opacity" values="0.55;1;0.55" dur="2.25s" begin="-1.08s" repeatCount="indefinite"/>
                </polygon>
                

                <polygon points="84.35,250.23 86.00,254.57 90.63,254.79 87.01,257.70 88.23,262.17 84.35,259.63 80.47,262.17 81.69,257.70 78.07,254.79 82.70,254.57" fill="#F7D116" opacity="0.92">
                  <animate attributeName="opacity" values="0.55;1;0.55" dur="2.5s" begin="-1.26s" repeatCount="indefinite"/>
                </polygon>
                

                <polygon points="84.35,220.57 86.00,224.90 90.63,225.13 87.01,228.03 88.23,232.51 84.35,229.97 80.47,232.51 81.69,228.03 78.07,225.13 82.70,224.90" fill="#F7D116" opacity="0.92">
                  <animate attributeName="opacity" values="0.55;1;0.55" dur="2.75s" begin="-1.44s" repeatCount="indefinite"/>
                </polygon>
                

                <polygon points="101.79,196.57 103.43,200.90 108.06,201.13 104.45,204.03 105.67,208.51 101.79,205.97 97.91,208.51 99.12,204.03 95.51,201.13 100.14,200.90" fill="#F7D116" opacity="0.92">
                  <animate attributeName="opacity" values="0.55;1;0.55" dur="3.0s" begin="-1.6199999999999999s" repeatCount="indefinite"/>
                </polygon>
                
  </g>

  <text x="655" y="235" fill="#E4F2FF" font-size="12" font-family="Segoe UI, Arial, sans-serif">
    10 ilhas • 1 visão • tecnologia com identidade
  </text>

  <!-- cards -->
  <g filter="url(#shadow)">
    <rect x="42" y="300" width="165" height="56" rx="16" fill="url(#glass)" stroke="#2B4F7C"/>
    <text x="68" y="325" fill="#FFFFFF" font-size="24" font-family="Segoe UI, Arial, sans-serif" font-weight="800">2</text>
    <text x="68" y="344" fill="#72C8FF" font-size="11" font-family="Segoe UI, Arial, sans-serif" font-weight="700">REPOSITÓRIOS</text>

    <rect x="224" y="300" width="165" height="56" rx="16" fill="url(#glass)" stroke="#2B4F7C"/>
    <text x="250" y="325" fill="#FFFFFF" font-size="24" font-family="Segoe UI, Arial, sans-serif" font-weight="800">1</text>
    <text x="250" y="344" fill="#72C8FF" font-size="11" font-family="Segoe UI, Arial, sans-serif" font-weight="700">SEGUIDORES</text>

    <rect x="406" y="300" width="165" height="56" rx="16" fill="url(#glass)" stroke="#2B4F7C"/>
    <text x="432" y="325" fill="#FFFFFF" font-size="24" font-family="Segoe UI, Arial, sans-serif" font-weight="800">0</text>
    <text x="432" y="344" fill="#72C8FF" font-size="11" font-family="Segoe UI, Arial, sans-serif" font-weight="700">ESTRELAS</text>

    <rect x="588" y="300" width="165" height="56" rx="16" fill="url(#glass)" stroke="#2B4F7C"/>
    <text x="614" y="325" fill="#FFFFFF" font-size="24" font-family="Segoe UI, Arial, sans-serif" font-weight="800">0</text>
    <text x="614" y="344" fill="#72C8FF" font-size="11" font-family="Segoe UI, Arial, sans-serif" font-weight="700">FORKS</text>

    <rect x="770" y="300" width="188" height="56" rx="16" fill="url(#glass)" stroke="#2B4F7C"/>
    <text x="796" y="325" fill="#FFFFFF" font-size="24" font-family="Segoe UI, Arial, sans-serif" font-weight="800">2</text>
    <text x="796" y="344" fill="#72C8FF" font-size="11" font-family="Segoe UI, Arial, sans-serif" font-weight="700">SEGUINDO</text>
  </g>

  <!-- ondas animadas -->
  <path d="M0 254 C130 230, 260 272, 392 254 C520 236, 650 274, 782 254 C894 238, 955 246, 1000 256 L1000 380 L0 380 Z"
        fill="url(#ocean1)">
    <animateTransform attributeName="transform" type="translate" values="-10 0;10 0;-10 0" dur="8s" repeatCount="indefinite"/>
  </path>

  <path d="M0 282 C142 258, 274 298, 414 280 C548 260, 680 298, 820 280 C918 264, 965 270, 1000 284 L1000 380 L0 380 Z"
        fill="url(#ocean2)">
    <animateTransform attributeName="transform" type="translate" values="12 0;-12 0;12 0" dur="10s" repeatCount="indefinite"/>
  </path>
</svg>
