<svg xmlns="http://www.w3.org/2000/svg" width="1200" height="430" viewBox="0 0 1200 430" role="img" aria-label="Cabo Verde Dev Pulse">
  <defs>
    <linearGradient id="bg" x1="0" y1="0" x2="1" y2="1">
      <stop offset="0%" stop-color="#030A14"/>
      <stop offset="46%" stop-color="#061A35"/>
      <stop offset="100%" stop-color="#030711"/>
    </linearGradient>

    <linearGradient id="cyanLine" x1="0" y1="0" x2="1" y2="0">
      <stop offset="0%" stop-color="#00BFFF" stop-opacity="0"/>
      <stop offset="50%" stop-color="#00BFFF" stop-opacity="0.85"/>
      <stop offset="100%" stop-color="#00BFFF" stop-opacity="0"/>
    </linearGradient>

    <linearGradient id="ocean" x1="0" y1="0" x2="1" y2="0">
      <stop offset="0%" stop-color="#00AEEF" stop-opacity="0.17"/>
      <stop offset="100%" stop-color="#003893" stop-opacity="0.06"/>
    </linearGradient>

    <radialGradient id="glow" cx="50%" cy="50%" r="50%">
      <stop offset="0%" stop-color="#00BFFF" stop-opacity="0.24"/>
      <stop offset="100%" stop-color="#00BFFF" stop-opacity="0"/>
    </radialGradient>

    <filter id="softGlow">
      <feGaussianBlur stdDeviation="4" result="b"/>
      <feMerge>
        <feMergeNode in="b"/>
        <feMergeNode in="SourceGraphic"/>
      </feMerge>
    </filter>

    <filter id="shadow">
      <feDropShadow dx="0" dy="8" stdDeviation="10" flood-color="#000000" flood-opacity="0.30"/>
    </filter>
  </defs>

  <rect width="1200" height="430" rx="28" fill="url(#bg)"/>

  <!-- ambient glow -->
  <circle cx="150" cy="88" r="95" fill="url(#glow)">
    <animate attributeName="r" values="88;104;88" dur="7s" repeatCount="indefinite"/>
  </circle>

  <circle cx="1030" cy="78" r="82" fill="url(#glow)" opacity="0.72">
    <animate attributeName="r" values="74;90;74" dur="6.2s" repeatCount="indefinite"/>
  </circle>

  <!-- subtle particles -->
  <g fill="#35C8FF" opacity="0.65">
    <circle cx="230" cy="44" r="2.5">
      <animate attributeName="opacity" values="0.25;1;0.25" dur="2.7s" repeatCount="indefinite"/>
    </circle>
    <circle cx="950" cy="32" r="2.5">
      <animate attributeName="opacity" values="1;0.25;1" dur="2.9s" repeatCount="indefinite"/>
    </circle>
    <circle cx="1090" cy="152" r="2.5">
      <animate attributeName="opacity" values="0.3;1;0.3" dur="3.1s" repeatCount="indefinite"/>
    </circle>
  </g>

  <!-- top left logo -->
  <g transform="translate(42 30)" filter="url(#softGlow)">
    <circle cx="68" cy="68" r="54" fill="#003893" stroke="#2B6CF0" stroke-width="2.5"/>
    <rect x="23" y="59" width="90" height="8" rx="4" fill="#FFFFFF"/>
    <rect x="23" y="68" width="90" height="8" rx="4" fill="#CF2027"/>
    <rect x="23" y="77" width="90" height="8" rx="4" fill="#FFFFFF"/>
    
            <polygon points="68.00,22.20 69.47,25.98 73.52,26.21 70.38,28.77 71.41,32.69 68.00,30.50 64.59,32.69 65.62,28.77 62.48,26.21 66.53,25.98" fill="#F7D116" opacity="0.88">
              <animate attributeName="opacity" values="0.45;1;0.45" dur="2.3s" begin="-0.0s" repeatCount="indefinite"/>
            </polygon>
            

            <polygon points="91.51,29.84 92.98,33.62 97.03,33.85 93.89,36.41 94.92,40.33 91.51,38.14 88.10,40.33 89.13,36.41 86.00,33.85 90.04,33.62" fill="#F7D116" opacity="0.88">
              <animate attributeName="opacity" values="0.45;1;0.45" dur="2.52s" begin="-0.15s" repeatCount="indefinite"/>
            </polygon>
            

            <polygon points="106.04,49.84 107.51,53.62 111.56,53.85 108.42,56.41 109.45,60.33 106.04,58.14 102.63,60.33 103.66,56.41 100.53,53.85 104.57,53.62" fill="#F7D116" opacity="0.88">
              <animate attributeName="opacity" values="0.45;1;0.45" dur="2.7399999999999998s" begin="-0.3s" repeatCount="indefinite"/>
            </polygon>
            

            <polygon points="106.04,74.56 107.51,78.34 111.56,78.57 108.42,81.13 109.45,85.05 106.04,82.86 102.63,85.05 103.66,81.13 100.53,78.57 104.57,78.34" fill="#F7D116" opacity="0.88">
              <animate attributeName="opacity" values="0.45;1;0.45" dur="2.96s" begin="-0.44999999999999996s" repeatCount="indefinite"/>
            </polygon>
            

            <polygon points="91.51,94.56 92.98,98.34 97.03,98.57 93.89,101.13 94.92,105.05 91.51,102.86 88.10,105.05 89.13,101.13 86.00,98.57 90.04,98.34" fill="#F7D116" opacity="0.88">
              <animate attributeName="opacity" values="0.45;1;0.45" dur="2.3s" begin="-0.6s" repeatCount="indefinite"/>
            </polygon>
            

            <polygon points="68.00,102.20 69.47,105.98 73.52,106.21 70.38,108.77 71.41,112.69 68.00,110.50 64.59,112.69 65.62,108.77 62.48,106.21 66.53,105.98" fill="#F7D116" opacity="0.88">
              <animate attributeName="opacity" values="0.45;1;0.45" dur="2.52s" begin="-0.75s" repeatCount="indefinite"/>
            </polygon>
            

            <polygon points="44.49,94.56 45.96,98.34 50.00,98.57 46.87,101.13 47.90,105.05 44.49,102.86 41.08,105.05 42.11,101.13 38.97,98.57 43.02,98.34" fill="#F7D116" opacity="0.88">
              <animate attributeName="opacity" values="0.45;1;0.45" dur="2.7399999999999998s" begin="-0.8999999999999999s" repeatCount="indefinite"/>
            </polygon>
            

            <polygon points="29.96,74.56 31.43,78.34 35.47,78.57 32.34,81.13 33.37,85.05 29.96,82.86 26.55,85.05 27.58,81.13 24.44,78.57 28.49,78.34" fill="#F7D116" opacity="0.88">
              <animate attributeName="opacity" values="0.45;1;0.45" dur="2.96s" begin="-1.05s" repeatCount="indefinite"/>
            </polygon>
            

            <polygon points="29.96,49.84 31.43,53.62 35.47,53.85 32.34,56.41 33.37,60.33 29.96,58.14 26.55,60.33 27.58,56.41 24.44,53.85 28.49,53.62" fill="#F7D116" opacity="0.88">
              <animate attributeName="opacity" values="0.45;1;0.45" dur="2.3s" begin="-1.2s" repeatCount="indefinite"/>
            </polygon>
            

            <polygon points="44.49,29.84 45.96,33.62 50.00,33.85 46.87,36.41 47.90,40.33 44.49,38.14 41.08,40.33 42.11,36.41 38.97,33.85 43.02,33.62" fill="#F7D116" opacity="0.88">
              <animate attributeName="opacity" values="0.45;1;0.45" dur="2.52s" begin="-1.3499999999999999s" repeatCount="indefinite"/>
            </polygon>
            
  </g>

  <!-- header text aligned more to the right -->
  <text x="170" y="82" fill="#FFFFFF" font-family="Segoe UI, Arial, sans-serif" font-size="34" font-weight="800">Cabo Verde Dev Pulse</text>
  <text x="170" y="114" fill="#D7E9FF" font-family="Segoe UI, Arial, sans-serif" font-size="16" font-weight="600">claudiogt1992-netizen • Cabo Verde • Systems Engineering &amp; Computer Science Student</text>
  <text x="170" y="137" fill="#7DC3FF" font-family="Segoe UI, Arial, sans-serif" font-size="13">Atualizado: 01/06/2026 12:47</text>

  <!-- header divider -->
  <line x1="46" y1="160" x2="1148" y2="160" stroke="url(#cyanLine)" stroke-width="2"/>

  <!-- top right flag, better aligned, stars static -->
  <g transform="translate(1018 36)" filter="url(#shadow)">
    <rect x="0" y="0" width="140" height="90" rx="20" fill="#09182E" fill-opacity="0.78" stroke="#1E4C7D" stroke-opacity="0.45"/>

    <g transform="translate(18 17)">
      <!-- cloth waving -->
      <path fill="#003893">
        <animate attributeName="d" dur="3.6s" repeatCount="indefinite"
          values="
          M0 0 C18 -4, 40 4, 54 0 C68 -4, 88 4, 104 0 L104 47 C88 51, 68 43, 54 47 C40 51, 18 43, 0 47 Z;
          M0 0 C18 3, 40 -3, 54 0 C68 3, 88 -3, 104 0 L104 47 C88 44, 68 50, 54 47 C40 44, 18 50, 0 47 Z;
          M0 0 C18 -4, 40 4, 54 0 C68 -4, 88 4, 104 0 L104 47 C88 51, 68 43, 54 47 C40 51, 18 43, 0 47 Z"/>
      </path>

      <path fill="#FFFFFF">
        <animate attributeName="d" dur="3.6s" repeatCount="indefinite"
          values="
          M0 16 C18 13, 40 19, 54 16 C68 13, 88 19, 104 16 L104 22 C88 25, 68 19, 54 22 C40 25, 18 19, 0 22 Z;
          M0 16 C18 18, 40 14, 54 16 C68 18, 88 14, 104 16 L104 22 C88 20, 68 24, 54 22 C40 20, 18 24, 0 22 Z;
          M0 16 C18 13, 40 19, 54 16 C68 13, 88 19, 104 16 L104 22 C88 25, 68 19, 54 22 C40 25, 18 19, 0 22 Z"/>
      </path>

      <path fill="#CF2027">
        <animate attributeName="d" dur="3.6s" repeatCount="indefinite"
          values="
          M0 22 C18 19, 40 25, 54 22 C68 19, 88 25, 104 22 L104 30 C88 33, 68 27, 54 30 C40 33, 18 27, 0 30 Z;
          M0 22 C18 24, 40 20, 54 22 C68 24, 88 20, 104 22 L104 30 C88 28, 68 32, 54 30 C40 28, 18 32, 0 30 Z;
          M0 22 C18 19, 40 25, 54 22 C68 19, 88 25, 104 22 L104 30 C88 33, 68 27, 54 30 C40 33, 18 27, 0 30 Z"/>
      </path>

      <path fill="#FFFFFF">
        <animate attributeName="d" dur="3.6s" repeatCount="indefinite"
          values="
          M0 30 C18 27, 40 33, 54 30 C68 27, 88 33, 104 30 L104 36 C88 39, 68 33, 54 36 C40 39, 18 33, 0 36 Z;
          M0 30 C18 32, 40 28, 54 30 C68 32, 88 28, 104 30 L104 36 C88 34, 68 38, 54 36 C40 34, 18 38, 0 36 Z;
          M0 30 C18 27, 40 33, 54 30 C68 27, 88 33, 104 30 L104 36 C88 39, 68 33, 54 36 C40 39, 18 33, 0 36 Z"/>
      </path>

      <g>
        <polygon points="54.00,14.10 54.73,15.99 56.76,16.10 55.19,17.39 55.70,19.35 54.00,18.25 52.30,19.35 52.81,17.39 51.24,16.10 53.27,15.99" fill="#F7D116" opacity="0.95"/>
<polygon points="63.99,17.35 64.73,19.24 66.75,19.35 65.18,20.63 65.70,22.59 63.99,21.50 62.29,22.59 62.80,20.63 61.23,19.35 63.26,19.24" fill="#F7D116" opacity="0.95"/>
<polygon points="70.17,25.85 70.90,27.74 72.93,27.85 71.36,29.13 71.87,31.09 70.17,30.00 68.46,31.09 68.98,29.13 67.41,27.85 69.43,27.74" fill="#F7D116" opacity="0.95"/>
<polygon points="70.17,36.35 70.90,38.24 72.93,38.36 71.36,39.64 71.87,41.60 70.17,40.50 68.46,41.60 68.98,39.64 67.41,38.36 69.43,38.24" fill="#F7D116" opacity="0.95"/>
<polygon points="63.99,44.85 64.73,46.74 66.75,46.86 65.18,48.14 65.70,50.10 63.99,49.00 62.29,50.10 62.80,48.14 61.23,46.86 63.26,46.74" fill="#F7D116" opacity="0.95"/>
<polygon points="54.00,48.10 54.73,49.99 56.76,50.10 55.19,51.39 55.70,53.35 54.00,52.25 52.30,53.35 52.81,51.39 51.24,50.10 53.27,49.99" fill="#F7D116" opacity="0.95"/>
<polygon points="44.01,44.85 44.74,46.74 46.77,46.86 45.20,48.14 45.71,50.10 44.01,49.00 42.30,50.10 42.82,48.14 41.25,46.86 43.27,46.74" fill="#F7D116" opacity="0.95"/>
<polygon points="37.83,36.35 38.57,38.24 40.59,38.36 39.02,39.64 39.54,41.60 37.83,40.50 36.13,41.60 36.64,39.64 35.07,38.36 37.10,38.24" fill="#F7D116" opacity="0.95"/>
<polygon points="37.83,25.85 38.57,27.74 40.59,27.85 39.02,29.13 39.54,31.09 37.83,30.00 36.13,31.09 36.64,29.13 35.07,27.85 37.10,27.74" fill="#F7D116" opacity="0.95"/>
<polygon points="44.01,17.35 44.74,19.24 46.77,19.35 45.20,20.63 45.71,22.59 44.01,21.50 42.30,22.59 42.82,20.63 41.25,19.35 43.27,19.24" fill="#F7D116" opacity="0.95"/>
      </g>
    </g>
  </g>

  <!-- main title -->
  <text x="600" y="224" text-anchor="middle" fill="#FFFFFF" font-family="Segoe UI, Arial, sans-serif" font-size="44" font-weight="800">
    <tspan>Full Stack </tspan><tspan fill="#12CBFF">Java</tspan><tspan> Developer in Progress</tspan>
  </text>

  <!-- subtitle clearly visible -->
  <text x="600" y="254" text-anchor="middle" fill="#AFCFFF" font-family="Segoe UI, Arial, sans-serif" font-size="19" font-weight="500">
    Systems Engineering &amp; Computer Science Student
  </text>

  <!-- tech row moved downward -->
  
    <g transform="translate(148 260)">
      <animateTransform attributeName="transform" type="translate"
        values="148 260;148 258;148 260"
        dur="3.2s" begin="-0.0s" repeatCount="indefinite"/>
      <rect width="118" height="38" rx="19" fill="#08172D" fill-opacity="0.93" stroke="#00BFFF" stroke-opacity="0.34"/>
      <circle cx="18" cy="19" r="5.5" fill="#00BFFF">
        <animate attributeName="opacity" values="0.4;1;0.4" dur="2.5s" begin="-0.0s" repeatCount="indefinite"/>
      </circle>
      <text x="32" y="24" fill="#F5F9FF" font-family="Segoe UI, Arial, sans-serif" font-size="14" font-weight="600">Java</text>
    </g>
    

    <g transform="translate(280 260)">
      <animateTransform attributeName="transform" type="translate"
        values="280 260;280 258;280 260"
        dur="3.2s" begin="-0.22s" repeatCount="indefinite"/>
      <rect width="118" height="38" rx="19" fill="#08172D" fill-opacity="0.93" stroke="#6DB33F" stroke-opacity="0.34"/>
      <circle cx="18" cy="19" r="5.5" fill="#6DB33F">
        <animate attributeName="opacity" values="0.4;1;0.4" dur="2.5s" begin="-0.22s" repeatCount="indefinite"/>
      </circle>
      <text x="32" y="24" fill="#F5F9FF" font-family="Segoe UI, Arial, sans-serif" font-size="14" font-weight="600">Spring</text>
    </g>
    

    <g transform="translate(412 260)">
      <animateTransform attributeName="transform" type="translate"
        values="412 260;412 258;412 260"
        dur="3.2s" begin="-0.44s" repeatCount="indefinite"/>
      <rect width="118" height="38" rx="19" fill="#08172D" fill-opacity="0.93" stroke="#19D8FF" stroke-opacity="0.34"/>
      <circle cx="18" cy="19" r="5.5" fill="#19D8FF">
        <animate attributeName="opacity" values="0.4;1;0.4" dur="2.5s" begin="-0.44s" repeatCount="indefinite"/>
      </circle>
      <text x="32" y="24" fill="#F5F9FF" font-family="Segoe UI, Arial, sans-serif" font-size="14" font-weight="600">React</text>
    </g>
    

    <g transform="translate(544 260)">
      <animateTransform attributeName="transform" type="translate"
        values="544 260;544 258;544 260"
        dur="3.2s" begin="-0.66s" repeatCount="indefinite"/>
      <rect width="118" height="38" rx="19" fill="#08172D" fill-opacity="0.93" stroke="#FF3B5C" stroke-opacity="0.34"/>
      <circle cx="18" cy="19" r="5.5" fill="#FF3B5C">
        <animate attributeName="opacity" values="0.4;1;0.4" dur="2.5s" begin="-0.66s" repeatCount="indefinite"/>
      </circle>
      <text x="32" y="24" fill="#F5F9FF" font-family="Segoe UI, Arial, sans-serif" font-size="14" font-weight="600">Angular</text>
    </g>
    

    <g transform="translate(676 260)">
      <animateTransform attributeName="transform" type="translate"
        values="676 260;676 258;676 260"
        dur="3.2s" begin="-0.88s" repeatCount="indefinite"/>
      <rect width="118" height="38" rx="19" fill="#08172D" fill-opacity="0.93" stroke="#F7D116" stroke-opacity="0.34"/>
      <circle cx="18" cy="19" r="5.5" fill="#F7D116">
        <animate attributeName="opacity" values="0.4;1;0.4" dur="2.5s" begin="-0.88s" repeatCount="indefinite"/>
      </circle>
      <text x="32" y="24" fill="#F5F9FF" font-family="Segoe UI, Arial, sans-serif" font-size="14" font-weight="600">JavaScript</text>
    </g>
    

    <g transform="translate(808 260)">
      <animateTransform attributeName="transform" type="translate"
        values="808 260;808 258;808 260"
        dur="3.2s" begin="-1.1s" repeatCount="indefinite"/>
      <rect width="118" height="38" rx="19" fill="#08172D" fill-opacity="0.93" stroke="#2F86FF" stroke-opacity="0.34"/>
      <circle cx="18" cy="19" r="5.5" fill="#2F86FF">
        <animate attributeName="opacity" values="0.4;1;0.4" dur="2.5s" begin="-1.1s" repeatCount="indefinite"/>
      </circle>
      <text x="32" y="24" fill="#F5F9FF" font-family="Segoe UI, Arial, sans-serif" font-size="14" font-weight="600">TypeScript</text>
    </g>
    

    <g transform="translate(940 260)">
      <animateTransform attributeName="transform" type="translate"
        values="940 260;940 258;940 260"
        dur="3.2s" begin="-1.32s" repeatCount="indefinite"/>
      <rect width="118" height="38" rx="19" fill="#08172D" fill-opacity="0.93" stroke="#FFD43B" stroke-opacity="0.34"/>
      <circle cx="18" cy="19" r="5.5" fill="#FFD43B">
        <animate attributeName="opacity" values="0.4;1;0.4" dur="2.5s" begin="-1.32s" repeatCount="indefinite"/>
      </circle>
      <text x="32" y="24" fill="#F5F9FF" font-family="Segoe UI, Arial, sans-serif" font-size="14" font-weight="600">Python</text>
    </g>
    

  <!-- stat cards -->
  
    <g transform="translate(70 334)">
      <rect width="190" height="88" rx="22" fill="#08172B" fill-opacity="0.84" stroke="#00AEEF" stroke-opacity="0.34"/>
      <rect width="190" height="88" rx="22" fill="none" stroke="#00AEEF">
        <animate attributeName="stroke-opacity" values="0.22;0.6;0.22" dur="3.1s" begin="-0.1s" repeatCount="indefinite"/>
      </rect>

      <rect x="-34" y="0" width="28" height="88" rx="14" fill="#FFFFFF" opacity="0">
        <animateTransform attributeName="transform" type="translate" values="0 0;265 0" dur="5s" begin="-0.1s" repeatCount="indefinite"/>
        <animate attributeName="opacity" values="0;0.13;0" dur="5s" begin="-0.1s" repeatCount="indefinite"/>
      </rect>

      <text x="95.0" y="40" text-anchor="middle" fill="#FFFFFF" font-family="Segoe UI, Arial, sans-serif" font-size="28" font-weight="800">2</text>
      <text x="95.0" y="66" text-anchor="middle" fill="#BEDBFF" font-family="Segoe UI, Arial, sans-serif" font-size="13" font-weight="600">Repositórios</text>
    </g>
    

    <g transform="translate(284 334)">
      <rect width="190" height="88" rx="22" fill="#08172B" fill-opacity="0.84" stroke="#2FB6FF" stroke-opacity="0.34"/>
      <rect width="190" height="88" rx="22" fill="none" stroke="#2FB6FF">
        <animate attributeName="stroke-opacity" values="0.22;0.6;0.22" dur="3.1s" begin="-0.5s" repeatCount="indefinite"/>
      </rect>

      <rect x="-34" y="0" width="28" height="88" rx="14" fill="#FFFFFF" opacity="0">
        <animateTransform attributeName="transform" type="translate" values="0 0;265 0" dur="5s" begin="-0.5s" repeatCount="indefinite"/>
        <animate attributeName="opacity" values="0;0.13;0" dur="5s" begin="-0.5s" repeatCount="indefinite"/>
      </rect>

      <text x="95.0" y="40" text-anchor="middle" fill="#FFFFFF" font-family="Segoe UI, Arial, sans-serif" font-size="28" font-weight="800">1</text>
      <text x="95.0" y="66" text-anchor="middle" fill="#BEDBFF" font-family="Segoe UI, Arial, sans-serif" font-size="13" font-weight="600">Seguidores</text>
    </g>
    

    <g transform="translate(498 334)">
      <rect width="190" height="88" rx="22" fill="#08172B" fill-opacity="0.84" stroke="#F7D116" stroke-opacity="0.34"/>
      <rect width="190" height="88" rx="22" fill="none" stroke="#F7D116">
        <animate attributeName="stroke-opacity" values="0.22;0.6;0.22" dur="3.1s" begin="-0.9s" repeatCount="indefinite"/>
      </rect>

      <rect x="-34" y="0" width="28" height="88" rx="14" fill="#FFFFFF" opacity="0">
        <animateTransform attributeName="transform" type="translate" values="0 0;265 0" dur="5s" begin="-0.9s" repeatCount="indefinite"/>
        <animate attributeName="opacity" values="0;0.13;0" dur="5s" begin="-0.9s" repeatCount="indefinite"/>
      </rect>

      <text x="95.0" y="40" text-anchor="middle" fill="#FFFFFF" font-family="Segoe UI, Arial, sans-serif" font-size="28" font-weight="800">0</text>
      <text x="95.0" y="66" text-anchor="middle" fill="#BEDBFF" font-family="Segoe UI, Arial, sans-serif" font-size="13" font-weight="600">Estrelas</text>
    </g>
    

    <g transform="translate(712 334)">
      <rect width="190" height="88" rx="22" fill="#08172B" fill-opacity="0.84" stroke="#8B5CF6" stroke-opacity="0.34"/>
      <rect width="190" height="88" rx="22" fill="none" stroke="#8B5CF6">
        <animate attributeName="stroke-opacity" values="0.22;0.6;0.22" dur="3.1s" begin="-1.3s" repeatCount="indefinite"/>
      </rect>

      <rect x="-34" y="0" width="28" height="88" rx="14" fill="#FFFFFF" opacity="0">
        <animateTransform attributeName="transform" type="translate" values="0 0;265 0" dur="5s" begin="-1.3s" repeatCount="indefinite"/>
        <animate attributeName="opacity" values="0;0.13;0" dur="5s" begin="-1.3s" repeatCount="indefinite"/>
      </rect>

      <text x="95.0" y="40" text-anchor="middle" fill="#FFFFFF" font-family="Segoe UI, Arial, sans-serif" font-size="28" font-weight="800">0</text>
      <text x="95.0" y="66" text-anchor="middle" fill="#BEDBFF" font-family="Segoe UI, Arial, sans-serif" font-size="13" font-weight="600">Forks</text>
    </g>
    

    <g transform="translate(926 334)">
      <rect width="190" height="88" rx="22" fill="#08172B" fill-opacity="0.84" stroke="#C084FC" stroke-opacity="0.34"/>
      <rect width="190" height="88" rx="22" fill="none" stroke="#C084FC">
        <animate attributeName="stroke-opacity" values="0.22;0.6;0.22" dur="3.1s" begin="-1.7s" repeatCount="indefinite"/>
      </rect>

      <rect x="-34" y="0" width="28" height="88" rx="14" fill="#FFFFFF" opacity="0">
        <animateTransform attributeName="transform" type="translate" values="0 0;265 0" dur="5s" begin="-1.7s" repeatCount="indefinite"/>
        <animate attributeName="opacity" values="0;0.13;0" dur="5s" begin="-1.7s" repeatCount="indefinite"/>
      </rect>

      <text x="95.0" y="40" text-anchor="middle" fill="#FFFFFF" font-family="Segoe UI, Arial, sans-serif" font-size="28" font-weight="800">2</text>
      <text x="95.0" y="66" text-anchor="middle" fill="#BEDBFF" font-family="Segoe UI, Arial, sans-serif" font-size="13" font-weight="600">Seguindo</text>
    </g>
    

  <!-- ocean motion -->
  <path d="M0 347 C150 328, 300 362, 450 347 C600 332, 750 362, 900 347 C1030 332, 1115 350, 1200 340 L1200 430 L0 430 Z" fill="url(#ocean)">
    <animateTransform attributeName="transform" type="translate" values="-14 0;14 0;-14 0" dur="8s" repeatCount="indefinite"/>
  </path>

  <!-- footer -->
  <text x="600" y="395" text-anchor="middle" fill="#C0DDFF" font-family="Segoe UI, Arial, sans-serif" font-size="15" font-weight="500">
    10 ilhas • 1 visão • tecnologia com identidade
  </text>
</svg>
